<?xml version="1.0" encoding="utf-8"?>
<!-- Generator: Adobe Illustrator 27.9.0, SVG Export Plug-In . SVG Version: 6.00 Build 0)  -->
<svg version="1.1" id="Layer_1" xmlns:serif="http://www.serif.com/"
	 xmlns="http://www.w3.org/2000/svg" xmlns:xlink="http://www.w3.org/1999/xlink" x="0px" y="0px" viewBox="0 0 456 456"
	 style="enable-background:new 0 0 456 456;" xml:space="preserve">
<style type="text/css">
	.st0{fill:#FFFFFF;}
</style>
<g>
	<path class="st0" d="M40.4,247.2H23.5c0.6,1.9,1.3,3.7,2.2,5.3c2.4,4.4,5.7,7.7,9.8,9.9c4.2,2.2,8.8,3.4,14.1,3.4
		c4.2,0,7.9-0.6,11-1.9s5.8-3,8-5.1c2.1-2.1,3.8-4.4,5-6.9c0.7-1.6,1.3-3.2,1.6-4.7H59.1H40.4z"/>
	<path class="st0" d="M143.8,247.2h-16.2c0.3,3.2,1.3,6.1,2.9,8.6c2.1,3.2,4.9,5.6,8.6,7.3c3.7,1.7,8,2.6,12.9,2.6
		c4.9,0,9.2-0.9,12.9-2.6c3.7-1.7,6.6-4.2,8.7-7.3c1.6-2.5,2.6-5.4,3-8.6h-16.2H143.8z"/>
	<polygon class="st0" points="368.1,240.2 384.1,240.2 373.5,207.9 352.3,207.9 341.7,240.2 357.7,240.2 	"/>
	<path class="st0" d="M67.5,212.9c-2.3-1.9-4.9-3.3-8-4.3c-3-1-6.3-1.5-10-1.5c-5.1,0-9.8,1.1-13.9,3.4c-4.2,2.2-7.5,5.5-9.9,9.9
		c-2.5,4.4-3.7,9.7-3.7,16.1c0,1.3,0.1,2.5,0.2,3.7h16c-0.1-1.2-0.2-2.4-0.2-3.7c0-3.3,0.5-6.1,1.4-8.5c0.9-2.4,2.3-4.2,4.1-5.4
		c1.8-1.3,4-1.9,6.6-1.9c1.5,0,2.8,0.2,4,0.6c1.2,0.4,2.2,1,3,1.8c0.8,0.8,1.5,1.7,2,2.7c0.5,1.1,0.8,2.2,0.9,3.5h15.7
		c-0.3-3.5-1.1-6.7-2.5-9.4C71.7,217.2,69.8,214.8,67.5,212.9z"/>
	<polygon class="st0" points="98.1,247.2 82.6,247.2 82.6,265 121.2,265 121.2,252.5 98.1,252.5 	"/>
	<rect x="82.6" y="207.9" class="st0" width="15.5" height="32.2"/>
	<rect x="127.4" y="207.9" class="st0" width="15.5" height="32.2"/>
	<rect x="161.2" y="207.9" class="st0" width="15.5" height="32.2"/>
	<path class="st0" d="M224.4,237.1c-2-1.1-4.2-1.8-6.7-1.9v-0.6c2.2-0.4,4.1-1.2,5.8-2.4c1.7-1.2,2.9-2.6,3.9-4.3
		c0.9-1.7,1.4-3.6,1.4-5.7c0-2.9-0.8-5.4-2.3-7.6c-1.5-2.1-3.8-3.8-6.7-5c-3-1.2-6.6-1.8-11-1.8h-24.8v32.2h44
		C227,238.9,225.8,237.9,224.4,237.1z"/>
	<path class="st0" d="M214.6,247.2h-15h-15.5V265h26.9c4.1,0,7.7-0.7,10.7-2.1c3-1.4,5.3-3.3,6.9-5.7s2.4-5.2,2.4-8.3
		c0-0.6,0-1.1-0.1-1.7H214.6z"/>
	<path class="st0" d="M240.8,235.9c2,1.8,4.6,3.2,7.6,4.3h32.4c-0.6-1.1-1.3-2.1-2.2-3c-1.4-1.5-3.3-2.8-5.5-3.9
		c-2.2-1.1-5-2-8.1-2.6l-4.7-1c-1.4-0.3-2.5-0.6-3.5-0.9c-1-0.4-1.8-0.7-2.4-1.2c-0.6-0.4-1.1-0.9-1.4-1.5c-0.3-0.5-0.4-1.2-0.4-1.9
		c0-0.8,0.3-1.6,0.8-2.2c0.5-0.7,1.2-1.2,2.2-1.5c1-0.4,2.3-0.6,3.9-0.6c2.5,0,4.4,0.5,5.6,1.6c1.2,1,1.9,2.5,2.1,4.3h14.8
		c0-3.7-0.9-7-2.8-9.8c-1.8-2.8-4.4-5-7.8-6.5s-7.3-2.3-12-2.3c-4.5,0-8.5,0.8-12,2.3s-6.2,3.6-8.2,6.4c-2,2.7-2.9,5.9-2.9,9.5
		C236.5,229.8,237.9,233.3,240.8,235.9z"/>
	<path class="st0" d="M266.9,247.2h-16.8h-15c0.3,3.8,1.3,7,3,9.5c2,3.1,4.9,5.3,8.6,6.8c3.7,1.5,8,2.2,13,2.2c4.8,0,9-0.7,12.4-2
		c3.4-1.4,6.1-3.3,8-5.9s2.8-5.8,2.8-9.5c0-0.3,0-0.7,0-1H266.9z"/>
	<polygon class="st0" points="336.8,207.9 287.2,207.9 287.2,220.4 304.4,220.4 304.4,240.2 319.6,240.2 319.6,220.4 336.8,220.4 	
		"/>
	<rect x="304.4" y="247.2" class="st0" width="15.3" height="17.9"/>
	<polygon class="st0" points="378.5,247.2 370.2,247.2 355.6,247.2 347.1,247.2 339.4,247.2 333.5,265 350.2,265 353.5,254.1 
		372.3,254.1 375.6,265 392.3,265 386.4,247.2 	"/>
	<polygon class="st0" points="389,207.9 389,220.4 406.2,220.4 406.2,240.2 421.4,240.2 421.4,220.4 438.6,220.4 438.6,207.9 	"/>
	<rect x="406.2" y="247.2" class="st0" width="15.3" height="17.9"/>
</g>
</svg>
