<?xml version="1.0" encoding="utf-8"?>
<!-- Generator: Adobe Illustrator 27.9.0, SVG Export Plug-In . SVG Version: 6.00 Build 0)  -->
<svg version="1.1" id="Layer_1" xmlns:serif="http://www.serif.com/"
	 xmlns="http://www.w3.org/2000/svg" xmlns:xlink="http://www.w3.org/1999/xlink" x="0px" y="0px" viewBox="0 0 456 456"
	 style="enable-background:new 0 0 456 456;" xml:space="preserve">
<style type="text/css">
	.st0{fill:#FFFFFF;}
	.st1{display:none;}
	.st2{display:inline;fill:#FFFFFF;}
</style>
<g>
	<path class="st0" d="M164.5,170.4h-16.9c0.6,1.9,1.3,3.7,2.2,5.3c2.4,4.4,5.7,7.7,9.8,9.9c4.2,2.2,8.8,3.4,14.1,3.4
		c4.2,0,7.9-0.6,11-1.9s5.8-3,8-5.1c2.1-2.1,3.8-4.4,5-6.9c0.7-1.6,1.3-3.2,1.6-4.7h-16.1H164.5z"/>
	<path class="st0" d="M274.4,170.4h-16.2c0.3,3.2,1.3,6.1,2.9,8.6c2.1,3.2,4.9,5.6,8.6,7.3s8,2.6,12.9,2.6s9.2-0.9,12.9-2.6
		c3.7-1.7,6.6-4.2,8.7-7.3c1.6-2.5,2.6-5.4,3-8.6H291H274.4z"/>
	<polygon class="st0" points="181.1,296.2 197.1,296.2 186.5,263.9 165.3,263.9 154.7,296.2 170.7,296.2 	"/>
	<path class="st0" d="M191.6,136.2c-2.3-1.9-4.9-3.3-8-4.3c-3-1-6.3-1.5-10-1.5c-5.1,0-9.8,1.1-13.9,3.4c-4.2,2.2-7.5,5.5-9.9,9.9
		c-2.5,4.4-3.7,9.7-3.7,16.1c0,1.3,0.1,2.5,0.2,3.7h16c-0.1-1.2-0.2-2.4-0.2-3.7c0-3.3,0.5-6.1,1.4-8.5s2.3-4.2,4.1-5.4
		c1.8-1.3,4-1.9,6.6-1.9c1.5,0,2.8,0.2,4,0.6c1.2,0.4,2.2,1,3,1.8s1.5,1.7,2,2.7c0.5,1.1,0.8,2.2,0.9,3.5h15.7
		c-0.3-3.5-1.1-6.7-2.5-9.4C195.8,140.4,193.9,138.1,191.6,136.2z"/>
	<polygon class="st0" points="222.4,170.7 206.9,170.7 206.9,188.5 245.5,188.5 245.5,176 222.4,176 	"/>
	<rect x="206.9" y="131.4" class="st0" width="15.5" height="32.2"/>
	<rect x="258.1" y="131.2" class="st0" width="15.5" height="32.2"/>
	<rect x="291.8" y="131.2" class="st0" width="15.5" height="32.2"/>
	<path class="st0" d="M186.8,227.3c-2-1.1-4.2-1.8-6.7-1.9v-0.6c2.2-0.4,4.1-1.2,5.8-2.4s2.9-2.6,3.9-4.3c0.9-1.7,1.4-3.6,1.4-5.7
		c0-2.9-0.8-5.4-2.3-7.6c-1.5-2.1-3.8-3.8-6.7-5c-3-1.2-6.6-1.8-11-1.8h-24.8v32.2h44C189.4,229.2,188.2,228.1,186.8,227.3z"/>
	<path class="st0" d="M176.9,237.4h-15h-15.5v17.9h26.9c4.1,0,7.7-0.7,10.7-2.1c3-1.4,5.3-3.3,6.9-5.7s2.4-5.2,2.4-8.3
		c0-0.6,0-1.1-0.1-1.7L176.9,237.4L176.9,237.4z"/>
	<path class="st0" d="M211.4,226.1c2,1.8,4.6,3.2,7.6,4.3h32.4c-0.6-1.1-1.3-2.1-2.2-3c-1.4-1.5-3.3-2.8-5.5-3.9
		c-2.2-1.1-5-2-8.1-2.6l-4.7-1c-1.4-0.3-2.5-0.6-3.5-0.9c-1-0.4-1.8-0.7-2.4-1.2c-0.6-0.4-1.1-0.9-1.4-1.5c-0.3-0.5-0.4-1.2-0.4-1.9
		c0-0.8,0.3-1.6,0.8-2.2c0.5-0.7,1.2-1.2,2.2-1.5c1-0.4,2.3-0.6,3.9-0.6c2.5,0,4.4,0.5,5.6,1.6c1.2,1,1.9,2.5,2.1,4.3h14.8
		c0-3.7-0.9-7-2.8-9.8c-1.8-2.8-4.4-5-7.8-6.5s-7.3-2.3-12-2.3c-4.5,0-8.5,0.8-12,2.3s-6.2,3.6-8.2,6.4c-2,2.7-2.9,5.9-2.9,9.5
		C207.1,220,208.5,223.5,211.4,226.1z"/>
	<path class="st0" d="M237.5,237.4h-16.8h-15c0.3,3.8,1.3,7,3,9.5c2,3.1,4.9,5.3,8.6,6.8c3.7,1.5,8,2.2,13,2.2c4.8,0,9-0.7,12.4-2
		c3.4-1.4,6.1-3.3,8-5.9s2.8-5.8,2.8-9.5c0-0.3,0-0.7,0-1h-16V237.4z"/>
	<polygon class="st0" points="309.8,198.2 260.2,198.2 260.2,210.7 277.4,210.7 277.4,230.4 292.6,230.4 292.6,210.7 309.8,210.7 	
		"/>
	<rect x="277.4" y="237.4" class="st0" width="15.3" height="17.9"/>
	<polygon class="st0" points="191.5,303.2 183.2,303.2 168.6,303.2 160.1,303.2 152.4,303.2 146.5,321 163.2,321 166.5,310.1 
		185.3,310.1 188.6,321 205.3,321 199.4,303.2 	"/>
	<polygon class="st0" points="206.1,263.9 206.1,276.4 223.3,276.4 223.3,296.2 238.6,296.2 238.6,276.4 255.8,276.4 255.8,263.9 	
		"/>
	<rect x="223.3" y="303.2" class="st0" width="15.3" height="17.9"/>
	<rect x="277.8" y="307.2" class="st0" width="16.6" height="14.8"/>
</g>
<g class="st1">
	<path class="st2" d="M36.9,365.3H20c0.6,1.9,1.3,3.7,2.2,5.3c2.4,4.4,5.7,7.7,9.8,9.9c4.2,2.2,8.8,3.4,14.1,3.4
		c4.2,0,7.9-0.6,11-1.9s5.8-3,8-5.1c2.1-2.1,3.8-4.4,5-6.9c0.7-1.6,1.3-3.2,1.6-4.7H55.5L36.9,365.3L36.9,365.3z"/>
	<path class="st2" d="M140.2,365.3H124c0.3,3.2,1.3,6.1,2.9,8.6c2.1,3.2,4.9,5.6,8.6,7.3c3.7,1.7,8,2.6,12.9,2.6s9.2-0.9,12.9-2.6
		s6.6-4.2,8.7-7.3c1.6-2.5,2.6-5.4,3-8.6h-16.2H140.2z"/>
	<polygon class="st2" points="364.6,358.3 380.6,358.3 370,326.1 348.8,326.1 338.1,358.3 354.2,358.3 	"/>
	<path class="st2" d="M64,331.1c-2.3-1.9-4.9-3.3-8-4.3c-3-1-6.3-1.5-10-1.5c-5.1,0-9.8,1.1-13.9,3.4c-4.2,2.2-7.5,5.5-9.9,9.9
		c-2.5,4.4-3.7,9.7-3.7,16.1c0,1.3,0.1,2.5,0.2,3.7h16c-0.1-1.2-0.2-2.4-0.2-3.7c0-3.3,0.5-6.1,1.4-8.5s2.3-4.2,4.1-5.4
		c1.8-1.3,4-1.9,6.6-1.9c1.5,0,2.8,0.2,4,0.6s2.2,1,3,1.8s1.5,1.7,2,2.7c0.5,1.1,0.8,2.2,0.9,3.5h15.7c-0.3-3.5-1.1-6.7-2.5-9.4
		C68.1,335.3,66.3,333,64,331.1z"/>
	<polygon class="st2" points="94.6,365.3 79.1,365.3 79.1,383.2 117.7,383.2 117.7,370.7 94.6,370.7 	"/>
	<rect x="79.1" y="326.1" class="st2" width="15.5" height="32.2"/>
	<rect x="123.9" y="326.1" class="st2" width="15.5" height="32.2"/>
	<rect x="157.7" y="326.1" class="st2" width="15.5" height="32.2"/>
	<path class="st2" d="M220.9,355.2c-2-1.1-4.2-1.8-6.7-1.9v-0.6c2.2-0.4,4.1-1.2,5.8-2.4c1.7-1.2,2.9-2.6,3.9-4.3
		c0.9-1.7,1.4-3.6,1.4-5.7c0-2.9-0.8-5.4-2.3-7.6c-1.5-2.1-3.8-3.8-6.7-5c-3-1.2-6.6-1.8-11-1.8h-24.8v32.2h44
		C223.5,357.1,222.3,356,220.9,355.2z"/>
	<path class="st2" d="M211.1,365.3h-15h-15.5v17.9h26.9c4.1,0,7.7-0.7,10.7-2.1s5.3-3.3,6.9-5.7s2.4-5.2,2.4-8.3
		c0-0.6,0-1.1-0.1-1.7L211.1,365.3L211.1,365.3z"/>
	<path class="st2" d="M237.3,354c2,1.8,4.6,3.2,7.6,4.3h32.4c-0.6-1.1-1.3-2.1-2.2-3c-1.4-1.5-3.3-2.8-5.5-3.9s-5-2-8.1-2.6l-4.7-1
		c-1.4-0.3-2.5-0.6-3.5-0.9c-1-0.4-1.8-0.7-2.4-1.2c-0.6-0.4-1.1-0.9-1.4-1.5c-0.3-0.5-0.4-1.2-0.4-1.9c0-0.8,0.3-1.6,0.8-2.2
		c0.5-0.7,1.2-1.2,2.2-1.5c1-0.4,2.3-0.6,3.9-0.6c2.5,0,4.4,0.5,5.6,1.6c1.2,1,1.9,2.5,2.1,4.3h14.8c0-3.7-0.9-7-2.8-9.8
		c-1.8-2.8-4.4-5-7.8-6.5s-7.3-2.3-12-2.3c-4.5,0-8.5,0.8-12,2.3s-6.2,3.6-8.2,6.4c-2,2.7-2.9,5.9-2.9,9.5
		C232.9,347.9,234.4,351.4,237.3,354z"/>
	<path class="st2" d="M263.3,365.3h-16.8h-15c0.3,3.8,1.3,7,3,9.5c2,3.1,4.9,5.3,8.6,6.8c3.7,1.5,8,2.2,13,2.2c4.8,0,9-0.7,12.4-2
		c3.4-1.4,6.1-3.3,8-5.9s2.8-5.8,2.8-9.5c0-0.3,0-0.7,0-1h-16L263.3,365.3L263.3,365.3z"/>
	<polygon class="st2" points="333.3,326.1 283.7,326.1 283.7,338.6 300.8,338.6 300.8,358.3 316.1,358.3 316.1,338.6 333.3,338.6 	
		"/>
	<rect x="300.8" y="365.3" class="st2" width="15.3" height="17.9"/>
	<polygon class="st2" points="375,365.3 366.7,365.3 352.1,365.3 343.5,365.3 335.8,365.3 329.9,383.2 346.7,383.2 350,372.2 
		368.8,372.2 372.1,383.2 388.8,383.2 382.9,365.3 	"/>
	<polygon class="st2" points="385.5,326.1 385.5,338.6 402.6,338.6 402.6,358.3 417.9,358.3 417.9,338.6 435.1,338.6 435.1,326.1 	
		"/>
	<rect x="402.6" y="365.3" class="st2" width="15.3" height="17.9"/>
</g>
</svg>
